%TF.GenerationSoftware,KiCad,Pcbnew,6.0.0-d3dd2cf0fa~116~ubuntu20.04.1*%
%TF.CreationDate,2022-01-03T23:27:22-03:00*%
%TF.ProjectId,CNC,434e432e-6b69-4636-9164-5f7063625858,1*%
%TF.SameCoordinates,Original*%
%TF.FileFunction,Soldermask,Top*%
%TF.FilePolarity,Negative*%
%FSLAX46Y46*%
G04 Gerber Fmt 4.6, Leading zero omitted, Abs format (unit mm)*
G04 Created by KiCad (PCBNEW 6.0.0-d3dd2cf0fa~116~ubuntu20.04.1) date 2022-01-03 23:27:22*
%MOMM*%
%LPD*%
G01*
G04 APERTURE LIST*
G04 Aperture macros list*
%AMRoundRect*
0 Rectangle with rounded corners*
0 $1 Rounding radius*
0 $2 $3 $4 $5 $6 $7 $8 $9 X,Y pos of 4 corners*
0 Add a 4 corners polygon primitive as box body*
4,1,4,$2,$3,$4,$5,$6,$7,$8,$9,$2,$3,0*
0 Add four circle primitives for the rounded corners*
1,1,$1+$1,$2,$3*
1,1,$1+$1,$4,$5*
1,1,$1+$1,$6,$7*
1,1,$1+$1,$8,$9*
0 Add four rect primitives between the rounded corners*
20,1,$1+$1,$2,$3,$4,$5,0*
20,1,$1+$1,$4,$5,$6,$7,0*
20,1,$1+$1,$6,$7,$8,$9,0*
20,1,$1+$1,$8,$9,$2,$3,0*%
G04 Aperture macros list end*
%ADD10O,1.500000X2.000000*%
%ADD11R,1.600000X1.600000*%
%ADD12C,1.600000*%
%ADD13R,1.905000X2.000000*%
%ADD14O,1.905000X2.000000*%
%ADD15RoundRect,0.250000X-0.450000X0.350000X-0.450000X-0.350000X0.450000X-0.350000X0.450000X0.350000X0*%
%ADD16R,1.800000X1.800000*%
%ADD17C,1.800000*%
%ADD18RoundRect,0.250000X-0.600000X-0.600000X0.600000X-0.600000X0.600000X0.600000X-0.600000X0.600000X0*%
%ADD19C,1.700000*%
%ADD20RoundRect,0.250000X-0.475000X0.337500X-0.475000X-0.337500X0.475000X-0.337500X0.475000X0.337500X0*%
%ADD21C,2.000000*%
%ADD22RoundRect,0.250000X-0.350000X-0.450000X0.350000X-0.450000X0.350000X0.450000X-0.350000X0.450000X0*%
%ADD23R,0.450000X1.750000*%
%ADD24R,1.700000X1.700000*%
%ADD25O,1.700000X1.700000*%
%ADD26RoundRect,0.250000X0.350000X0.450000X-0.350000X0.450000X-0.350000X-0.450000X0.350000X-0.450000X0*%
%ADD27R,3.000000X3.000000*%
%ADD28C,3.000000*%
%ADD29R,1.730000X2.030000*%
%ADD30O,1.730000X2.030000*%
%ADD31RoundRect,0.250000X0.600000X-0.600000X0.600000X0.600000X-0.600000X0.600000X-0.600000X-0.600000X0*%
%ADD32R,1.200000X0.700000*%
%ADD33R,0.800000X1.000000*%
%ADD34R,1.900000X1.300000*%
%ADD35R,1.200000X1.000000*%
%ADD36R,2.800000X1.000000*%
G04 APERTURE END LIST*
D10*
%TO.C,U2*%
X115505480Y-91262865D03*
X118045480Y-91262865D03*
X120585480Y-91262865D03*
X123125480Y-91262865D03*
X125665480Y-91262865D03*
X128205480Y-91262865D03*
X130745480Y-91262865D03*
X133285480Y-91262865D03*
X135825480Y-91262865D03*
X138365480Y-91262865D03*
X140905480Y-91262865D03*
X143445480Y-91262865D03*
X145985480Y-91262865D03*
X148525480Y-91262865D03*
X151065480Y-91262865D03*
X151065480Y-66262865D03*
X148525480Y-66262865D03*
X145985480Y-66262865D03*
X143445480Y-66262865D03*
X140905480Y-66262865D03*
X138365480Y-66262865D03*
X135825480Y-66262865D03*
X133285480Y-66262865D03*
X130745480Y-66262865D03*
X128205480Y-66262865D03*
X125665480Y-66262865D03*
X123125480Y-66262865D03*
X120585480Y-66262865D03*
X118045480Y-66262865D03*
X115505480Y-66262865D03*
%TD*%
D11*
%TO.C,C11*%
X158302829Y-124272865D03*
D12*
X161802829Y-124272865D03*
%TD*%
D13*
%TO.C,U1*%
X142175480Y-103962865D03*
D14*
X144715480Y-103962865D03*
X147255480Y-103962865D03*
%TD*%
D15*
%TO.C,R4*%
X177165000Y-67310000D03*
X177165000Y-69310000D03*
%TD*%
%TO.C,R5*%
X174625000Y-67310000D03*
X174625000Y-69310000D03*
%TD*%
D16*
%TO.C,D2*%
X154875480Y-99517865D03*
D17*
X154875480Y-102057865D03*
%TD*%
D11*
%TO.C,C3*%
X154240480Y-107390214D03*
D12*
X154240480Y-110890214D03*
%TD*%
D18*
%TO.C,J7*%
X191135000Y-78740000D03*
D19*
X193675000Y-78740000D03*
X191135000Y-81280000D03*
X193675000Y-81280000D03*
X191135000Y-83820000D03*
X193675000Y-83820000D03*
X191135000Y-86360000D03*
X193675000Y-86360000D03*
X191135000Y-88900000D03*
X193675000Y-88900000D03*
X191135000Y-91440000D03*
X193675000Y-91440000D03*
X191135000Y-93980000D03*
X193675000Y-93980000D03*
X191135000Y-96520000D03*
X193675000Y-96520000D03*
%TD*%
D20*
%TO.C,C7*%
X139383131Y-117297865D03*
X139383131Y-119372865D03*
%TD*%
D21*
%TO.C,U4*%
X178370480Y-117287865D03*
X178370480Y-119827865D03*
X178370480Y-122367865D03*
X178370480Y-124907865D03*
X178370480Y-127447865D03*
X178370480Y-129987865D03*
X178370480Y-132527865D03*
X178370480Y-135067865D03*
X191070480Y-135067865D03*
X191070480Y-132527865D03*
X191070480Y-129987865D03*
X191070480Y-127447865D03*
X191070480Y-124907865D03*
X191070480Y-122367865D03*
X191070480Y-119827865D03*
X191070480Y-117287865D03*
X183450480Y-117287865D03*
X180910480Y-117287865D03*
%TD*%
D22*
%TO.C,R3*%
X136095480Y-69672865D03*
X138095480Y-69672865D03*
%TD*%
D20*
%TO.C,C13*%
X163765480Y-132537865D03*
X163765480Y-134612865D03*
%TD*%
%TO.C,C8*%
X188530480Y-132537865D03*
X188530480Y-134612865D03*
%TD*%
D16*
%TO.C,D1*%
X134555480Y-98882865D03*
D17*
X134555480Y-101422865D03*
%TD*%
D23*
%TO.C,U7*%
X182025000Y-71965000D03*
X181375000Y-71965000D03*
X180725000Y-71965000D03*
X180075000Y-71965000D03*
X179425000Y-71965000D03*
X178775000Y-71965000D03*
X178125000Y-71965000D03*
X177475000Y-71965000D03*
X176825000Y-71965000D03*
X176175000Y-71965000D03*
X175525000Y-71965000D03*
X174875000Y-71965000D03*
X174225000Y-71965000D03*
X173575000Y-71965000D03*
X173575000Y-79165000D03*
X174225000Y-79165000D03*
X174875000Y-79165000D03*
X175525000Y-79165000D03*
X176175000Y-79165000D03*
X176825000Y-79165000D03*
X177475000Y-79165000D03*
X178125000Y-79165000D03*
X178775000Y-79165000D03*
X179425000Y-79165000D03*
X180075000Y-79165000D03*
X180725000Y-79165000D03*
X181375000Y-79165000D03*
X182025000Y-79165000D03*
%TD*%
D24*
%TO.C,JP2*%
X167575480Y-92537865D03*
D25*
X167575480Y-89997865D03*
%TD*%
D24*
%TO.C,MOT_Y1*%
X170750480Y-122377865D03*
D25*
X170750480Y-124917865D03*
X170750480Y-127457865D03*
X170750480Y-129997865D03*
%TD*%
D24*
%TO.C,MOT_Z1*%
X146368131Y-122387865D03*
D25*
X146368131Y-124927865D03*
X146368131Y-127467865D03*
X146368131Y-130007865D03*
%TD*%
D24*
%TO.C,J5*%
X118680480Y-60782865D03*
D25*
X116140480Y-60782865D03*
%TD*%
D21*
%TO.C,U6*%
X153605480Y-117287865D03*
X153605480Y-119827865D03*
X153605480Y-122367865D03*
X153605480Y-124907865D03*
X153605480Y-127447865D03*
X153605480Y-129987865D03*
X153605480Y-132527865D03*
X153605480Y-135067865D03*
X166305480Y-135067865D03*
X166305480Y-132527865D03*
X166305480Y-129987865D03*
X166305480Y-127447865D03*
X166305480Y-124907865D03*
X166305480Y-122367865D03*
X166305480Y-119827865D03*
X166305480Y-117287865D03*
X158685480Y-117287865D03*
X156145480Y-117287865D03*
%TD*%
D24*
%TO.C,J3*%
X123760480Y-60077865D03*
D25*
X126300480Y-60077865D03*
X128840480Y-60077865D03*
X131380480Y-60077865D03*
X133920480Y-60077865D03*
X136460480Y-60077865D03*
%TD*%
D26*
%TO.C,R1*%
X142175480Y-98882865D03*
X140175480Y-98882865D03*
%TD*%
D20*
%TO.C,C16*%
X177800000Y-83820000D03*
X177800000Y-85895000D03*
%TD*%
D24*
%TO.C,JP4*%
X125665480Y-101422865D03*
D25*
X125665480Y-98882865D03*
%TD*%
D27*
%TO.C,J1*%
X106615480Y-106330516D03*
D28*
X106615480Y-111330516D03*
%TD*%
D24*
%TO.C,MOT_A1*%
X122490480Y-123012865D03*
D25*
X122490480Y-125552865D03*
X122490480Y-128092865D03*
X122490480Y-130632865D03*
%TD*%
D11*
%TO.C,C2*%
X134555480Y-107137865D03*
D12*
X134555480Y-110637865D03*
%TD*%
D24*
%TO.C,J2*%
X163130480Y-92532865D03*
%TD*%
D20*
%TO.C,C14*%
X115505480Y-117922865D03*
X115505480Y-119997865D03*
%TD*%
%TO.C,C12*%
X115505480Y-132992865D03*
X115505480Y-135067865D03*
%TD*%
%TO.C,C15*%
X163765480Y-117297865D03*
X163765480Y-119372865D03*
%TD*%
D29*
%TO.C,J8*%
X164455000Y-69000000D03*
D30*
X166995000Y-69000000D03*
X169535000Y-69000000D03*
%TD*%
D22*
%TO.C,R2*%
X147160480Y-98882865D03*
X149160480Y-98882865D03*
%TD*%
D11*
%TO.C,C1*%
X119950480Y-107137865D03*
D12*
X119950480Y-110637865D03*
%TD*%
D31*
%TO.C,J6*%
X167005000Y-61540000D03*
D19*
X167005000Y-59000000D03*
X169545000Y-61540000D03*
X169545000Y-59000000D03*
X172085000Y-61540000D03*
X172085000Y-59000000D03*
X174625000Y-61540000D03*
X174625000Y-59000000D03*
X177165000Y-61540000D03*
X177165000Y-59000000D03*
X179705000Y-61540000D03*
X179705000Y-59000000D03*
X182245000Y-61540000D03*
X182245000Y-59000000D03*
X184785000Y-61540000D03*
X184785000Y-59000000D03*
%TD*%
D21*
%TO.C,U5*%
X105345480Y-117922865D03*
X105345480Y-120462865D03*
X105345480Y-123002865D03*
X105345480Y-125542865D03*
X105345480Y-128082865D03*
X105345480Y-130622865D03*
X105345480Y-133162865D03*
X105345480Y-135702865D03*
X118045480Y-135702865D03*
X118045480Y-133162865D03*
X118045480Y-130622865D03*
X118045480Y-128082865D03*
X118045480Y-125542865D03*
X118045480Y-123002865D03*
X118045480Y-120462865D03*
X118045480Y-117922865D03*
X110425480Y-117922865D03*
X107885480Y-117922865D03*
%TD*%
D20*
%TO.C,C9*%
X188530480Y-117297865D03*
X188530480Y-119372865D03*
%TD*%
%TO.C,C5*%
X139383131Y-132770365D03*
X139383131Y-134845365D03*
%TD*%
D11*
%TO.C,C6*%
X183067829Y-124272865D03*
D12*
X186567829Y-124272865D03*
%TD*%
D21*
%TO.C,U3*%
X129223131Y-117297865D03*
X129223131Y-119837865D03*
X129223131Y-122377865D03*
X129223131Y-124917865D03*
X129223131Y-127457865D03*
X129223131Y-129997865D03*
X129223131Y-132537865D03*
X129223131Y-135077865D03*
X141923131Y-135077865D03*
X141923131Y-132537865D03*
X141923131Y-129997865D03*
X141923131Y-127457865D03*
X141923131Y-124917865D03*
X141923131Y-122377865D03*
X141923131Y-119837865D03*
X141923131Y-117297865D03*
X134303131Y-117297865D03*
X131763131Y-117297865D03*
%TD*%
D11*
%TO.C,C4*%
X133920480Y-124917865D03*
D12*
X137420480Y-124917865D03*
%TD*%
D11*
%TO.C,C10*%
X110042829Y-124907865D03*
D12*
X113542829Y-124907865D03*
%TD*%
D32*
%TO.C,J4*%
X116170480Y-81942865D03*
X116170480Y-80842865D03*
X116170480Y-79742865D03*
X116170480Y-78642865D03*
X116170480Y-77542865D03*
X116170480Y-76442865D03*
X116170480Y-75342865D03*
X116170480Y-74242865D03*
X116170480Y-73292865D03*
D33*
X105670480Y-72342865D03*
D34*
X101070480Y-85842865D03*
D35*
X116170480Y-83492865D03*
X111870480Y-72342865D03*
D36*
X101520480Y-72342865D03*
%TD*%
D24*
%TO.C,JP1*%
X170115480Y-86182865D03*
D25*
X167575480Y-86182865D03*
%TD*%
D24*
%TO.C,MOT_X1*%
X196150480Y-122377865D03*
D25*
X196150480Y-124917865D03*
X196150480Y-127457865D03*
X196150480Y-129997865D03*
%TD*%
D24*
%TO.C,JP3*%
X116775480Y-98882865D03*
D25*
X119315480Y-98882865D03*
%TD*%
M02*
