M48
; DRILL file {KiCad 6.0.0-d3dd2cf0fa~116~ubuntu20.04.1} date seg 03 jan 2022 23:27:28
; FORMAT={-:-/ absolute / metric / decimal}
; #@! TF.CreationDate,2022-01-03T23:27:28-03:00
; #@! TF.GenerationSoftware,Kicad,Pcbnew,6.0.0-d3dd2cf0fa~116~ubuntu20.04.1
; #@! TF.FileFunction,Plated,1,2,PTH
FMAT,2
METRIC
; #@! TA.AperFunction,Plated,PTH,ViaDrill
T1C0.400
; #@! TA.AperFunction,Plated,PTH,ComponentDrill
T2C0.762
; #@! TA.AperFunction,Plated,PTH,ComponentDrill
T3C0.800
; #@! TA.AperFunction,Plated,PTH,ComponentDrill
T4C0.900
; #@! TA.AperFunction,Plated,PTH,ComponentDrill
T5C1.000
; #@! TA.AperFunction,Plated,PTH,ComponentDrill
T6C1.020
; #@! TA.AperFunction,Plated,PTH,ComponentDrill
T7C1.100
; #@! TA.AperFunction,Plated,PTH,ComponentDrill
T8C1.500
; #@! TA.AperFunction,Plated,PTH,ViaDrill
T9C3.000
%
G90
G05
T1
X100.27Y-117.943
X101.27Y-117.943
X102.269Y-117.943
X103.44Y-113.488
X109.155Y-112.853
X112.33Y-74.753
X114.235Y-83.643
X120.65Y-70.485
X123.125Y-96.978
X124.4Y-117.308
X125.4Y-117.308
X125.73Y-71.755
X126.3Y-78.563
X126.3Y-113.488
X126.399Y-117.308
X128.205Y-73.483
X130.11Y-112.218
X130.745Y-73.483
X131.0Y-63.0
X133.285Y-73.483
X134.62Y-88.9
X138.365Y-112.218
X139.635Y-103.963
X145.415Y-72.39
X146.05Y-71.12
X148.525Y-84.913
X148.53Y-117.308
X149.225Y-76.2
X149.53Y-117.308
X150.43Y-113.488
X150.529Y-117.308
X152.335Y-112.218
X156.845Y-74.93
X172.655Y-88.088
X172.72Y-66.675
X173.29Y-117.298
X173.925Y-88.088
X174.29Y-117.298
X175.195Y-88.088
X175.289Y-113.582
X175.289Y-117.298
X175.895Y-81.915
X176.045Y-85.09
X178.37Y-112.218
X188.595Y-80.01
X188.595Y-82.55
X188.595Y-85.09
X188.595Y-87.63
T2
X107.885Y-117.923
X110.425Y-117.923
X131.763Y-117.298
X134.303Y-117.298
X156.145Y-117.288
X158.685Y-117.288
X180.91Y-117.288
X183.45Y-117.288
T3
X105.345Y-117.923
X105.345Y-120.463
X105.345Y-123.003
X105.345Y-125.543
X105.345Y-128.083
X105.345Y-130.623
X105.345Y-133.163
X105.345Y-135.703
X110.043Y-124.908
X113.543Y-124.908
X115.505Y-66.263
X115.505Y-91.263
X118.045Y-66.263
X118.045Y-91.263
X118.045Y-117.923
X118.045Y-120.463
X118.045Y-123.003
X118.045Y-125.543
X118.045Y-128.083
X118.045Y-130.623
X118.045Y-133.163
X118.045Y-135.703
X119.95Y-107.138
X119.95Y-110.638
X120.585Y-66.263
X120.585Y-91.263
X123.125Y-66.263
X123.125Y-91.263
X125.665Y-66.263
X125.665Y-91.263
X128.205Y-66.263
X128.205Y-91.263
X129.223Y-117.298
X129.223Y-119.838
X129.223Y-122.378
X129.223Y-124.918
X129.223Y-127.458
X129.223Y-129.998
X129.223Y-132.538
X129.223Y-135.078
X130.745Y-66.263
X130.745Y-91.263
X133.285Y-66.263
X133.285Y-91.263
X133.92Y-124.918
X134.555Y-107.138
X134.555Y-110.638
X135.825Y-66.263
X135.825Y-91.263
X137.42Y-124.918
X138.365Y-66.263
X138.365Y-91.263
X140.905Y-66.263
X140.905Y-91.263
X141.923Y-117.298
X141.923Y-119.838
X141.923Y-122.378
X141.923Y-124.918
X141.923Y-127.458
X141.923Y-129.998
X141.923Y-132.538
X141.923Y-135.078
X143.445Y-66.263
X143.445Y-91.263
X145.985Y-66.263
X145.985Y-91.263
X148.525Y-66.263
X148.525Y-91.263
X151.065Y-66.263
X151.065Y-91.263
X153.605Y-117.288
X153.605Y-119.828
X153.605Y-122.368
X153.605Y-124.908
X153.605Y-127.448
X153.605Y-129.988
X153.605Y-132.528
X153.605Y-135.068
X154.24Y-107.39
X154.24Y-110.89
X158.303Y-124.273
X161.803Y-124.273
X166.305Y-117.288
X166.305Y-119.828
X166.305Y-122.368
X166.305Y-124.908
X166.305Y-127.448
X166.305Y-129.988
X166.305Y-132.528
X166.305Y-135.068
X178.37Y-117.288
X178.37Y-119.828
X178.37Y-122.368
X178.37Y-124.908
X178.37Y-127.448
X178.37Y-129.988
X178.37Y-132.528
X178.37Y-135.068
X183.068Y-124.273
X186.568Y-124.273
X191.07Y-117.288
X191.07Y-119.828
X191.07Y-122.368
X191.07Y-124.908
X191.07Y-127.448
X191.07Y-129.988
X191.07Y-132.528
X191.07Y-135.068
T4
X134.555Y-98.883
X134.555Y-101.423
X154.875Y-99.518
X154.875Y-102.058
T5
X116.14Y-60.783
X116.775Y-98.883
X118.68Y-60.783
X119.315Y-98.883
X122.49Y-123.013
X122.49Y-125.553
X122.49Y-128.093
X122.49Y-130.633
X123.76Y-60.078
X125.665Y-98.883
X125.665Y-101.423
X126.3Y-60.078
X128.84Y-60.078
X131.38Y-60.078
X133.92Y-60.078
X136.46Y-60.078
X146.368Y-122.388
X146.368Y-124.928
X146.368Y-127.468
X146.368Y-130.008
X163.13Y-92.533
X167.005Y-59.0
X167.005Y-61.54
X167.575Y-86.183
X167.575Y-89.998
X167.575Y-92.538
X169.545Y-59.0
X169.545Y-61.54
X170.115Y-86.183
X170.75Y-122.378
X170.75Y-124.918
X170.75Y-127.458
X170.75Y-129.998
X172.085Y-59.0
X172.085Y-61.54
X174.625Y-59.0
X174.625Y-61.54
X177.165Y-59.0
X177.165Y-61.54
X179.705Y-59.0
X179.705Y-61.54
X182.245Y-59.0
X182.245Y-61.54
X184.785Y-59.0
X184.785Y-61.54
X191.135Y-78.74
X191.135Y-81.28
X191.135Y-83.82
X191.135Y-86.36
X191.135Y-88.9
X191.135Y-91.44
X191.135Y-93.98
X191.135Y-96.52
X193.675Y-78.74
X193.675Y-81.28
X193.675Y-83.82
X193.675Y-86.36
X193.675Y-88.9
X193.675Y-91.44
X193.675Y-93.98
X193.675Y-96.52
X196.15Y-122.378
X196.15Y-124.918
X196.15Y-127.458
X196.15Y-129.998
T6
X164.455Y-69.0
X166.995Y-69.0
X169.535Y-69.0
T7
X142.175Y-103.963
X144.715Y-103.963
X147.255Y-103.963
T8
X106.615Y-106.331
X106.615Y-111.331
T9
X102.805Y-58.243
X102.805Y-140.793
X195.515Y-58.243
X195.515Y-140.793
T0
M30
