M48
; DRILL file {KiCad 6.0.0-d3dd2cf0fa~116~ubuntu20.04.1} date seg 03 jan 2022 11:45:56
; FORMAT={-:-/ absolute / inch / decimal}
; #@! TF.CreationDate,2022-01-03T11:45:56-03:00
; #@! TF.GenerationSoftware,Kicad,Pcbnew,6.0.0-d3dd2cf0fa~116~ubuntu20.04.1
; #@! TF.FileFunction,Plated,1,2,PTH
FMAT,2
INCH
; #@! TA.AperFunction,Plated,PTH,ViaDrill
T1C0.0157
; #@! TA.AperFunction,Plated,PTH,ComponentDrill
T2C0.0300
; #@! TA.AperFunction,Plated,PTH,ComponentDrill
T3C0.0315
; #@! TA.AperFunction,Plated,PTH,ComponentDrill
T4C0.0354
; #@! TA.AperFunction,Plated,PTH,ComponentDrill
T5C0.0394
; #@! TA.AperFunction,Plated,PTH,ComponentDrill
T6C0.0433
; #@! TA.AperFunction,Plated,PTH,ComponentDrill
T7C0.0591
; #@! TA.AperFunction,Plated,PTH,ViaDrill
T8C0.1181
%
G90
G05
T1
X3.9477Y-4.6434
X3.987Y-4.6434
X4.0264Y-4.6434
X4.0725Y-4.468
X4.2975Y-4.443
X4.4225Y-2.943
X4.4975Y-3.293
X4.8475Y-3.818
X4.8977Y-4.6184
X4.937Y-4.6184
X4.9725Y-3.093
X4.9725Y-4.468
X4.9764Y-4.6184
X5.0475Y-2.893
X5.1225Y-4.418
X5.1475Y-2.893
X5.2475Y-2.893
X5.4475Y-4.418
X5.4975Y-4.093
X5.8475Y-3.343
X5.8477Y-4.6184
X5.887Y-4.6184
X5.9225Y-4.468
X5.9264Y-4.6184
X5.9975Y-4.418
X6.7975Y-3.468
X6.8225Y-4.618
X6.8475Y-3.468
X6.8618Y-4.618
X6.8975Y-3.468
X6.9012Y-4.4717
X6.9012Y-4.618
X7.0225Y-4.418
T2
X4.2475Y-4.6426
X4.3475Y-4.6426
X5.1875Y-4.618
X5.2875Y-4.618
X6.1475Y-4.6176
X6.2475Y-4.6176
X7.1225Y-4.6176
X7.2225Y-4.6176
T3
X4.1475Y-4.6426
X4.1475Y-4.7426
X4.1475Y-4.8426
X4.1475Y-4.9426
X4.1475Y-5.0426
X4.1475Y-5.1426
X4.1475Y-5.2426
X4.1475Y-5.3426
X4.3324Y-4.9176
X4.4702Y-4.9176
X4.5475Y-2.6088
X4.5475Y-3.593
X4.6475Y-2.6088
X4.6475Y-3.593
X4.6475Y-4.6426
X4.6475Y-4.7426
X4.6475Y-4.8426
X4.6475Y-4.9426
X4.6475Y-5.0426
X4.6475Y-5.1426
X4.6475Y-5.2426
X4.6475Y-5.3426
X4.7225Y-4.218
X4.7225Y-4.3558
X4.7475Y-2.6088
X4.7475Y-3.593
X4.8475Y-2.6088
X4.8475Y-3.593
X4.9475Y-2.6088
X4.9475Y-3.593
X5.0475Y-2.6088
X5.0475Y-3.593
X5.0875Y-4.618
X5.0875Y-4.718
X5.0875Y-4.818
X5.0875Y-4.918
X5.0875Y-5.018
X5.0875Y-5.118
X5.0875Y-5.218
X5.0875Y-5.318
X5.1475Y-2.6088
X5.1475Y-3.593
X5.2475Y-2.6088
X5.2475Y-3.593
X5.2725Y-4.918
X5.2975Y-4.218
X5.2975Y-4.3558
X5.3475Y-2.6088
X5.3475Y-3.593
X5.4103Y-4.918
X5.4475Y-2.6088
X5.4475Y-3.593
X5.5475Y-2.6088
X5.5475Y-3.593
X5.5875Y-4.618
X5.5875Y-4.718
X5.5875Y-4.818
X5.5875Y-4.918
X5.5875Y-5.018
X5.5875Y-5.118
X5.5875Y-5.218
X5.5875Y-5.318
X5.6475Y-2.6088
X5.6475Y-3.593
X5.7475Y-2.6088
X5.7475Y-3.593
X5.8475Y-2.6088
X5.8475Y-3.593
X5.9475Y-2.6088
X5.9475Y-3.593
X6.0475Y-4.6176
X6.0475Y-4.7176
X6.0475Y-4.8176
X6.0475Y-4.9176
X6.0475Y-5.0176
X6.0475Y-5.1176
X6.0475Y-5.2176
X6.0475Y-5.3176
X6.0725Y-4.228
X6.0725Y-4.3658
X6.2324Y-4.8926
X6.3702Y-4.8926
X6.5475Y-4.6176
X6.5475Y-4.7176
X6.5475Y-4.8176
X6.5475Y-4.9176
X6.5475Y-5.0176
X6.5475Y-5.1176
X6.5475Y-5.2176
X6.5475Y-5.3176
X7.0225Y-4.6176
X7.0225Y-4.7176
X7.0225Y-4.8176
X7.0225Y-4.9176
X7.0225Y-5.0176
X7.0225Y-5.1176
X7.0225Y-5.2176
X7.0225Y-5.3176
X7.2074Y-4.8926
X7.3452Y-4.8926
X7.5225Y-4.6176
X7.5225Y-4.7176
X7.5225Y-4.8176
X7.5225Y-4.9176
X7.5225Y-5.0176
X7.5225Y-5.1176
X7.5225Y-5.2176
X7.5225Y-5.3176
T4
X5.2975Y-3.893
X5.2975Y-3.993
X6.0975Y-3.918
X6.0975Y-4.018
T5
X4.5725Y-2.393
X4.5975Y-3.893
X4.6725Y-2.393
X4.6975Y-3.893
X4.8225Y-4.843
X4.8225Y-4.943
X4.8225Y-5.043
X4.8225Y-5.143
X4.8725Y-2.3653
X4.9475Y-3.893
X4.9475Y-3.993
X4.9725Y-2.3653
X5.0725Y-2.3653
X5.1725Y-2.3653
X5.2725Y-2.3653
X5.3725Y-2.3653
X5.5475Y-2.368
X5.6475Y-2.368
X5.7475Y-2.368
X5.7625Y-4.8184
X5.7625Y-4.9184
X5.7625Y-5.0184
X5.7625Y-5.1184
X5.8475Y-2.368
X6.4225Y-3.643
X6.5975Y-3.393
X6.5975Y-3.5432
X6.5975Y-3.6432
X6.6975Y-3.393
X6.7225Y-4.818
X6.7225Y-4.918
X6.7225Y-5.018
X6.7225Y-5.118
X7.7225Y-4.818
X7.7225Y-4.918
X7.7225Y-5.018
X7.7225Y-5.118
T6
X5.5975Y-4.093
X5.6975Y-4.093
X5.7975Y-4.093
T7
X4.1975Y-4.1862
X4.1975Y-4.3831
T8
X4.0475Y-2.293
X4.0475Y-5.543
X7.6975Y-2.293
X7.6975Y-5.543
T0
M30
